<svg width="512" height="512" viewBox="0 0 512 512" xmlns="http://www.w3.org/2000/svg">
  <defs>
    <linearGradient id="goldGradient" x1="0%" y1="0%" x2="100%" y2="100%">
      <stop offset="0%" style="stop-color:#F5E6A3;stop-opacity:1" />
      <stop offset="50%" style="stop-color:#D4AF37;stop-opacity:1" />
      <stop offset="100%" style="stop-color:#B8941F;stop-opacity:1" />
    </linearGradient>
    <linearGradient id="bronzeGradient" x1="0%" y1="0%" x2="100%" y2="100%">
      <stop offset="0%" style="stop-color:#E8D5A3;stop-opacity:1" />
      <stop offset="100%" style="stop-color:#C9A961;stop-opacity:1" />
    </linearGradient>
  </defs>
  
  <!-- 右下角祥云装饰（水平 + 垂直翻转） -->
  <g transform="translate(512, 512) scale(-1, -1)">
    <path d="M50 180 Q30 160, 50 140 Q70 100, 120 100 Q160 80, 200 100 Q250 90, 280 120 Q320 110, 350 140 Q380 160, 360 190 Q390 220, 360 250 Q340 280, 300 270 Q280 300, 240 290 Q200 310, 160 290 Q120 310, 80 290 Q40 280, 50 240 Q20 220, 50 180 Z" fill="url(#goldGradient)" opacity="0.15"/>
    <path d="M70 170 Q55 155, 70 140 Q85 110, 120 110 Q150 95, 180 110 Q220 100, 250 125 Q280 120, 305 145 Q325 160, 310 185 Q335 205, 315 230 Q300 250, 270 240 Q255 265, 225 255 Q195 270, 165 255 Q135 270, 105 255 Q75 245, 80 215 Q55 200, 70 170 Z" fill="url(#bronzeGradient)" opacity="0.25"/>
    <path d="M90 160 Q80 150, 90 140 Q100 120, 120 120 Q140 110, 160 120 Q190 115, 210 135 Q230 130, 245 150 Q260 160, 250 175 Q270 190, 255 210 Q245 225, 225 220 Q215 235, 195 230 Q175 240, 155 230 Q135 240, 115 230 Q95 225, 100 205 Q85 190, 90 160 Z" fill="url(#goldGradient)" opacity="0.4"/>
    <circle cx="110" cy="165" r="3" fill="#D4AF37" opacity="0.5"/>
    <circle cx="160" cy="145" r="2.5" fill="#D4AF37" opacity="0.5"/>
    <path d="M0 50 L0 300 M50 0 L300 0" stroke="url(#goldGradient)" stroke-width="4" fill="none" opacity="0.8"/>
    <path d="M0 45 L0 35 M45 0 L35 0" stroke="url(#goldGradient)" stroke-width="6" fill="none" opacity="1"/>
  </g>
</svg>
